<?xml version="1.0" encoding="UTF-8" standalone="no"?>
<svg width="90" height="87" viewBox="0 0 90 87" fill="none" version="1.1" id="svg6" xmlns="http://www.w3.org/2000/svg"
    xmlns:svg="http://www.w3.org/2000/svg">
    <defs id="defs6" />
    <path
        d="m 1.6759506,19.118837 20.0025004,65.84 c 0.1539,0.5067 0.6763,0.8056 1.1912,0.6814 l 64.8731,-15.6398 c 0.461,-0.1112 0.781,-0.5309 0.765,-1.005 l -1.192,-36.311 c -0.011,-0.3417 -0.196,-0.654 -0.49,-0.828 L 35.508851,1.5193366 c -0.2943,-0.174 -0.6571,-0.1856 -0.9619,-0.0307 L 2.1797506,17.936637 c -0.4324,0.2197 -0.6448,0.7181 -0.5038,1.1822 z"
        fill="#d9fafd" stroke="#11c4d4" strokeWidth="2" strokeLinecap="round" strokeLinejoin="round" id="path1" />
    <path d="m 26.319551,33.028437 -2.8948,50.3439 40.2246,-28.2755 z" fill="#d9fafd" id="path2" />
    <path
        d="m 3.9217506,19.787337 22.3978004,13.2411 m 60.9722,36.0451 -23.6424,-13.9767 m -15.6602,-44.5212 -21.6696,22.4528 m 0,0 -2.8948,50.3439 40.2246,-28.2755 m -37.3298,-22.0684 37.3298,22.0684 m 5.4933,-32.0157 -5.4933,32.0157"
        stroke="#11c4d4" stroke-width="2" strokeLinecap="round" strokeLinejoin="round" id="path3" />
    <path
        d="m 1.6759506,19.118837 20.0025004,65.84 c 0.1539,0.5067 0.6763,0.8056 1.1912,0.6814 l 64.8731,-15.6398 c 0.461,-0.1112 0.781,-0.5309 0.765,-1.005 l -1.192,-36.311 c -0.011,-0.3417 -0.196,-0.654 -0.49,-0.828 L 35.508851,1.5193366 c -0.2943,-0.174 -0.6571,-0.1856 -0.9619,-0.0307 L 2.1797506,17.936637 c -0.4324,0.2197 -0.6448,0.7181 -0.5038,1.1822 z"
        fill="#d9fafd" stroke="#11c4d4" stroke-width="2" strokeLinecap="round" strokeLinejoin="round" id="path4" />
    <path d="m 26.318351,33.030137 -2.8948,50.3439 40.2246,-28.2754 z" fill="#d9fafd" id="path5" />
    <path fillRule="evenodd" clipRule="evenodd"
        d="m 69.310551,22.097237 c 0.5443,0.0934 0.9098,0.6104 0.8164,1.1547 l -5.3767,31.3366 23.0485,13.6259 c 0.476,0.2811 0.633,0.8943 0.352,1.3698 -0.281,0.4754 -0.894,0.6329 -1.369,0.3519 l -23.0868,-13.6481 -39.6964,27.9041 c -0.3138,0.2206 -0.7261,0.2423 -1.0613,0.0558 -0.3352,-0.1865 -0.5341,-0.5483 -0.5121,-0.9313 l 2.8599,-49.7357 -21.8735004,-12.931 c -0.4754,-0.2811 -0.6329,-0.8943 -0.3519,-1.3697 0.2811,-0.4755 0.8943,-0.633 1.3697,-0.352 l 21.7180004,12.8391 21.121,-21.8844004 c 0.3835,-0.3974 1.0166,-0.4086 1.414,-0.0251 0.3974,0.3836004 0.4086,1.0166004 0.0251,1.4140004 l -20.7904,21.5418 34.9908,20.6857 5.248,-30.5856 c 0.0933,-0.5443 0.6103,-0.9099 1.1547,-0.8165 z m -7.5047,33.074 -34.5834,-20.4449 -2.6819,46.6401 z"
        fill="#11c4d4" id="path6" />
</svg>